<svg xmlns="http://www.w3.org/2000/svg" xmlns:xlink="http://www.w3.org/1999/xlink" width="500" zoomAndPan="magnify" viewBox="0 0 375 374.999991" height="500" preserveAspectRatio="xMidYMid meet" version="1.0"><defs><clipPath id="35d609d516"><path d="M 161 185 L 221 185 L 221 195.882812 L 161 195.882812 Z M 161 185 " clip-rule="nonzero"/></clipPath><clipPath id="e8d4d0975e"><path d="M 113 80.382812 L 246.496094 80.382812 L 246.496094 195.882812 L 113 195.882812 Z M 113 80.382812 " clip-rule="nonzero"/></clipPath><clipPath id="770f87d8f2"><path d="M 113 153 L 244 153 L 244 195.882812 L 113 195.882812 Z M 113 153 " clip-rule="nonzero"/></clipPath><clipPath id="0898e3329f"><path d="M 129 121 L 246.496094 121 L 246.496094 195.882812 L 129 195.882812 Z M 129 121 " clip-rule="nonzero"/></clipPath><clipPath id="bd6ab3ac51"><path d="M 162 172 L 220 172 L 220 195.882812 L 162 195.882812 Z M 162 172 " clip-rule="nonzero"/></clipPath></defs><g clip-path="url(#35d609d516)"><path fill="#1d949a" d="M 179.171875 190.035156 C 179.171875 190.035156 176.417969 198.953125 177.441406 216.304688 C 178.46875 233.691406 183.902344 240.164062 185.027344 243.421875 C 186.152344 246.679688 184.183594 253.859375 182.160156 253.527344 C 179.472656 253.089844 178.867188 247.382812 178.867188 247.382812 C 178.867188 247.382812 174.984375 254.371094 172.535156 253.832031 C 169.902344 253.25 171.394531 246.664062 171.394531 246.664062 C 171.394531 246.664062 165.359375 250.75 164.34375 249.570312 C 163.332031 248.390625 167.863281 243.199219 167.863281 243.199219 C 154.355469 215.574219 167.863281 185.605469 167.863281 185.605469 Z M 202.730469 190.035156 C 202.730469 190.035156 205.484375 198.953125 204.460938 216.304688 C 203.433594 233.691406 198 240.164062 196.875 243.421875 C 195.75 246.679688 197.71875 253.859375 199.746094 253.527344 C 202.429688 253.089844 203.035156 247.382812 203.035156 247.382812 C 203.035156 247.382812 206.921875 254.371094 209.367188 253.832031 C 212 253.25 210.507812 246.664062 210.507812 246.664062 C 210.507812 246.664062 216.542969 250.75 217.558594 249.570312 C 218.570312 248.390625 214.039062 243.199219 214.039062 243.199219 C 227.546875 215.574219 214.039062 185.605469 214.039062 185.605469 Z M 202.730469 190.035156 " fill-opacity="1" fill-rule="nonzero"/></g><g clip-path="url(#e8d4d0975e)"><path fill="#2dbcb7" d="M 245.628906 215.023438 C 245.632812 215.027344 245.632812 215.03125 245.632812 215.035156 C 244.273438 224.628906 240.765625 229.761719 239.394531 229.863281 C 238.269531 229.945312 238.550781 225.925781 238.550781 225.925781 C 238.550781 225.925781 235.765625 231.96875 234.5 231.546875 C 233.230469 231.125 233.640625 224.941406 233.640625 224.941406 C 233.640625 224.941406 231.875 228.5 230.277344 228.011719 C 229.179688 227.671875 231.023438 212.65625 231.023438 212.65625 C 231.378906 206.875 232.269531 200.359375 231.121094 195.613281 C 229.242188 187.84375 223.585938 183.378906 222.277344 182.433594 C 213.265625 189.445312 200.355469 190.867188 190.9375 190.867188 C 181.867188 190.867188 169.550781 189.550781 160.605469 183.183594 C 157.230469 186.605469 142.332031 194.363281 130.167969 188.089844 C 122.859375 184.320312 118.535156 177.929688 116.789062 171.964844 C 116.789062 171.964844 116.789062 171.960938 116.789062 171.960938 C 115.667969 168.898438 113.019531 156.757812 114.199219 156.71875 C 115.222656 156.683594 117.3125 158.75 117.859375 159.3125 C 117.894531 159.269531 117.929688 159.230469 117.964844 159.191406 C 117.824219 158.027344 117.34375 153.367188 118.675781 153.222656 C 120.195312 153.054688 122.558594 157.535156 122.558594 157.535156 C 122.558594 157.535156 123.484375 153.726562 124.582031 153.726562 C 125.679688 153.726562 129.675781 164.375 129.695312 164.429688 C 132.332031 168.867188 134.863281 174.273438 138.722656 176.859375 C 144.761719 180.90625 151.902344 178.402344 154.511719 177.242188 C 150.65625 172.015625 148.433594 164.851562 149.066406 155.054688 C 150.523438 132.417969 166.167969 124.003906 178.71875 121.066406 C 177.183594 119.589844 175.089844 117.847656 172.523438 116.320312 C 166.671875 112.839844 163.292969 110.367188 164.757812 107.898438 C 166.21875 105.425781 175.675781 106.324219 184.003906 118.453125 C 181.414062 109.246094 178.601562 104.753906 176.238281 101.273438 C 173.875 97.792969 176.914062 92.960938 183.328125 97.453125 C 189.4375 101.730469 190.75 115.414062 189.984375 119.621094 C 190.042969 119.621094 190.101562 119.617188 190.160156 119.617188 C 193.308594 113.621094 194.457031 109.085938 194.023438 97.453125 C 193.570312 85.457031 197.0625 80.386719 200.101562 80.386719 C 203.253906 80.386719 206.484375 88.171875 202.996094 104.566406 C 200.855469 113.4375 196.949219 118.453125 196.949219 118.453125 C 196.949219 118.453125 206.628906 108.796875 209.21875 100.933594 C 211.808594 93.074219 220.363281 94.535156 217.546875 104.867188 C 215.707031 111.617188 208.632812 117.695312 203.289062 121.097656 C 215.816406 124.0625 231.355469 132.5 232.808594 155.054688 C 233.390625 164.078125 231.550781 170.871094 228.238281 175.972656 C 233.730469 178.949219 242.375 186.417969 244.855469 197.859375 C 246.269531 204.390625 246.4375 210.3125 245.628906 215.023438 Z M 245.628906 215.023438 C 245.632812 215.027344 245.632812 215.03125 245.632812 215.035156 C 244.273438 224.628906 240.765625 229.761719 239.394531 229.863281 C 238.269531 229.945312 238.550781 225.925781 238.550781 225.925781 C 238.550781 225.925781 235.765625 231.96875 234.5 231.546875 C 233.230469 231.125 233.640625 224.941406 233.640625 224.941406 C 233.640625 224.941406 231.875 228.5 230.277344 228.011719 C 229.179688 227.671875 231.023438 212.65625 231.023438 212.65625 C 231.378906 206.875 232.269531 200.359375 231.121094 195.613281 C 229.242188 187.84375 223.585938 183.378906 222.277344 182.433594 C 213.265625 189.445312 200.355469 190.867188 190.9375 190.867188 C 181.867188 190.867188 169.550781 189.550781 160.605469 183.183594 C 157.230469 186.605469 142.332031 194.363281 130.167969 188.089844 C 122.859375 184.320312 118.535156 177.929688 116.789062 171.964844 C 116.789062 171.964844 116.789062 171.960938 116.789062 171.960938 C 115.667969 168.898438 113.019531 156.757812 114.199219 156.71875 C 115.222656 156.683594 117.3125 158.75 117.859375 159.3125 C 117.894531 159.269531 117.929688 159.230469 117.964844 159.191406 C 117.824219 158.027344 117.34375 153.367188 118.675781 153.222656 C 120.195312 153.054688 122.558594 157.535156 122.558594 157.535156 C 122.558594 157.535156 123.484375 153.726562 124.582031 153.726562 C 125.679688 153.726562 129.675781 164.375 129.695312 164.429688 C 132.332031 168.867188 134.863281 174.273438 138.722656 176.859375 C 144.761719 180.90625 151.902344 178.402344 154.511719 177.242188 C 150.65625 172.015625 148.433594 164.851562 149.066406 155.054688 C 150.523438 132.417969 166.167969 124.003906 178.71875 121.066406 C 177.183594 119.589844 175.089844 117.847656 172.523438 116.320312 C 166.671875 112.839844 163.292969 110.367188 164.757812 107.898438 C 166.21875 105.425781 175.675781 106.324219 184.003906 118.453125 C 181.414062 109.246094 178.601562 104.753906 176.238281 101.273438 C 173.875 97.792969 176.914062 92.960938 183.328125 97.453125 C 189.4375 101.730469 190.75 115.414062 189.984375 119.621094 C 190.042969 119.621094 190.101562 119.617188 190.160156 119.617188 C 193.308594 113.621094 194.457031 109.085938 194.023438 97.453125 C 193.570312 85.457031 197.0625 80.386719 200.101562 80.386719 C 203.253906 80.386719 206.484375 88.171875 202.996094 104.566406 C 200.855469 113.4375 196.949219 118.453125 196.949219 118.453125 C 196.949219 118.453125 206.628906 108.796875 209.21875 100.933594 C 211.808594 93.074219 220.363281 94.535156 217.546875 104.867188 C 215.707031 111.617188 208.632812 117.695312 203.289062 121.097656 C 215.816406 124.0625 231.355469 132.5 232.808594 155.054688 C 233.390625 164.078125 231.550781 170.871094 228.238281 175.972656 C 233.730469 178.949219 242.375 186.417969 244.855469 197.859375 C 246.269531 204.390625 246.4375 210.3125 245.628906 215.023438 Z M 151.859375 132.265625 C 147.671875 132.265625 143.785156 133.902344 140.917969 136.871094 C 138.511719 139.363281 135.703125 143.929688 135.988281 151.554688 C 136.230469 158.082031 139.199219 161.652344 141.644531 163.496094 C 144.34375 165.53125 147.964844 166.648438 151.839844 166.648438 C 152.382812 166.648438 152.925781 166.628906 153.460938 166.582031 C 157.671875 166.234375 160.890625 164.960938 163.296875 162.683594 C 166.371094 159.773438 167.929688 155.316406 167.929688 149.429688 C 167.929688 138.359375 162.222656 132.265625 151.859375 132.265625 Z M 246.222656 147.363281 C 245.980469 140.832031 243.011719 137.265625 240.566406 135.421875 C 237.871094 133.386719 234.25 132.265625 230.371094 132.265625 C 229.832031 132.265625 229.285156 132.289062 228.753906 132.332031 C 224.539062 132.679688 221.320312 133.957031 218.914062 136.234375 C 215.839844 139.140625 214.28125 143.601562 214.28125 149.488281 C 214.28125 160.554688 219.992188 166.648438 230.355469 166.648438 C 234.542969 166.648438 238.429688 165.015625 241.296875 162.042969 C 243.703125 159.554688 246.507812 154.984375 246.222656 147.363281 Z M 246.222656 147.363281 " fill-opacity="1" fill-rule="nonzero"/></g><path fill="#0e0f1a" d="M 163.425781 149.433594 C 163.425781 158.757812 159.039062 160.964844 154.824219 161.363281 C 150.664062 161.757812 144.675781 159.785156 144.390625 151.09375 C 144.109375 142.402344 148.621094 137.503906 153.835938 137.503906 C 158.488281 137.503906 163.425781 139.71875 163.425781 149.433594 Z M 228.734375 161.410156 C 233.949219 161.410156 238.460938 156.511719 238.179688 147.824219 C 237.898438 139.132812 231.90625 137.15625 227.746094 137.550781 C 223.53125 137.953125 219.148438 140.160156 219.148438 149.480469 C 219.148438 159.199219 224.082031 161.410156 228.734375 161.410156 Z M 179.199219 156.003906 C 174.253906 157.957031 180.289062 169.980469 190.5625 169.980469 C 203.882812 169.980469 208.234375 156.96875 201.902344 155.664062 C 195.566406 154.359375 185.160156 153.652344 179.199219 156.003906 Z M 179.199219 156.003906 " fill-opacity="1" fill-rule="nonzero"/><path fill="#ffffff" d="M 151.859375 134.847656 C 144.523438 134.847656 138.179688 140.835938 138.574219 151.457031 C 138.972656 162.078125 147.398438 164.492188 153.246094 164.007812 C 159.171875 163.519531 165.339844 160.824219 165.339844 149.429688 C 165.339844 137.550781 158.402344 134.847656 151.859375 134.847656 Z M 154.648438 159.972656 C 150.976562 160.324219 145.683594 158.578125 145.433594 150.902344 C 145.1875 143.226562 149.171875 138.902344 153.777344 138.902344 C 157.886719 138.902344 162.246094 140.855469 162.246094 149.4375 C 162.246094 157.671875 158.371094 159.621094 154.648438 159.972656 Z M 243.636719 147.460938 C 243.242188 136.835938 234.816406 134.421875 228.964844 134.90625 C 223.039062 135.394531 216.871094 138.09375 216.871094 149.488281 C 216.871094 161.363281 223.8125 164.066406 230.355469 164.066406 C 237.6875 164.066406 244.035156 158.082031 243.636719 147.460938 Z M 228.660156 160.015625 C 224.550781 160.015625 220.191406 158.0625 220.191406 149.480469 C 220.191406 141.246094 224.066406 139.296875 227.789062 138.941406 C 231.460938 138.59375 236.753906 140.339844 237.003906 148.011719 C 237.25 155.6875 233.265625 160.015625 228.660156 160.015625 Z M 197.601562 154.953125 C 197.601562 154.953125 198.535156 159.816406 199.972656 160.097656 C 201.40625 160.378906 202.949219 155.992188 202.949219 155.992188 C 202.949219 155.992188 201.097656 155.089844 197.601562 154.953125 Z M 197.601562 154.953125 " fill-opacity="1" fill-rule="nonzero"/><g clip-path="url(#770f87d8f2)"><path fill="#1d949a" d="M 243.71875 223.113281 C 242.171875 227.488281 240.308594 229.792969 239.394531 229.863281 C 238.269531 229.945312 238.550781 225.925781 238.550781 225.925781 C 238.550781 225.925781 235.765625 231.96875 234.5 231.546875 C 233.230469 231.125 233.640625 224.941406 233.640625 224.941406 C 233.640625 224.941406 231.875 228.5 230.277344 228.011719 C 229.640625 227.816406 229.992188 222.703125 230.398438 218.429688 Z M 124.582031 153.726562 C 123.484375 153.726562 122.558594 157.535156 122.558594 157.535156 C 122.558594 157.535156 120.195312 153.054688 118.675781 153.222656 C 117.34375 153.367188 117.824219 158.027344 117.964844 159.191406 C 117.929688 159.230469 117.894531 159.269531 117.859375 159.3125 C 117.3125 158.75 115.222656 156.683594 114.199219 156.71875 C 113.476562 156.742188 114.191406 161.3125 115.113281 165.554688 L 127.984375 160.113281 C 126.753906 157.140625 125.203125 153.726562 124.582031 153.726562 Z M 124.582031 153.726562 " fill-opacity="1" fill-rule="nonzero"/></g><g clip-path="url(#0898e3329f)"><path fill="#175c71" d="M 223.304688 131.820312 C 222.996094 132.367188 222.625 132.875 222.226562 133.347656 C 219.953125 136.039062 214.238281 138.25 208.917969 133.175781 C 204.71875 129.167969 204.300781 124.910156 205.863281 121.777344 C 211.851562 123.519531 218.238281 126.578125 223.304688 131.820312 Z M 204.011719 138.558594 C 205.488281 137.273438 207.355469 137.210938 209.132812 139.222656 C 210.8125 141.128906 210.210938 142.765625 209.027344 143.757812 C 207.699219 144.867188 205.941406 145.167969 203.949219 143.238281 C 202.285156 141.625 203 139.445312 204.011719 138.558594 Z M 158.113281 169.898438 C 157.84375 168.765625 158.328125 167.765625 159.882812 167.386719 C 161.355469 167.03125 162.054688 167.800781 162.25 168.699219 C 162.46875 169.703125 162.140625 170.714844 160.570312 171.226562 C 159.257812 171.652344 158.300781 170.675781 158.113281 169.898438 Z M 190.9375 190.867188 C 191.375 190.867188 191.820312 190.863281 192.269531 190.859375 C 192.753906 186.558594 189.480469 181.996094 182.363281 180.09375 C 174.492188 177.988281 171.097656 182.804688 170.324219 186.625 C 170.238281 187.046875 170.175781 187.472656 170.132812 187.90625 C 177.1875 190.265625 184.804688 190.867188 190.9375 190.867188 Z M 244.855469 197.859375 C 244.570312 196.542969 244.199219 195.285156 243.761719 194.074219 C 239.105469 196.082031 237.457031 201.375 238.378906 205.222656 C 239.003906 207.835938 241.941406 211.046875 246.082031 210.542969 C 246.226562 206.757812 245.851562 202.460938 244.855469 197.859375 Z M 138.722656 176.859375 C 136.269531 175.214844 134.351562 172.425781 132.597656 169.472656 C 131.960938 169.636719 131.378906 170.007812 130.832031 170.597656 C 129.222656 172.332031 128.179688 176.113281 131.101562 178.6875 C 134.1875 181.398438 138.1875 180.53125 140.179688 178.292969 C 140.300781 178.15625 140.402344 178.003906 140.492188 177.847656 C 139.894531 177.570312 139.304688 177.25 138.722656 176.859375 Z M 138.722656 176.859375 " fill-opacity="0.2" fill-rule="nonzero"/></g><g clip-path="url(#bd6ab3ac51)"><path fill="#175c71" d="M 218.042969 198.433594 C 213.449219 198.839844 208.804688 199.550781 204.40625 200.945312 C 204.363281 200.34375 204.3125 199.761719 204.261719 199.207031 C 208.59375 197.875 213.132812 197.164062 217.648438 196.746094 C 217.785156 197.292969 217.914062 197.855469 218.042969 198.433594 Z M 219.617188 208.015625 C 214.59375 208.214844 209.574219 208.894531 204.679688 209.941406 C 204.675781 210.515625 204.667969 211.097656 204.652344 211.695312 C 209.59375 210.589844 214.65625 209.960938 219.695312 209.742188 C 219.722656 209.742188 219.75 209.742188 219.78125 209.742188 C 219.730469 209.160156 219.675781 208.582031 219.617188 208.015625 Z M 203.914062 222.105469 C 203.835938 222.695312 203.753906 223.269531 203.664062 223.828125 C 208.960938 223.839844 214.253906 224.011719 219.539062 224.339844 C 219.609375 223.765625 219.675781 223.199219 219.730469 222.628906 C 214.464844 222.296875 209.1875 222.125 203.914062 222.105469 Z M 201.300781 233.535156 C 201.089844 234.144531 200.875 234.722656 200.660156 235.269531 C 205.316406 235.183594 209.980469 235.324219 214.621094 235.703125 C 215.410156 235.765625 216.199219 235.847656 216.984375 235.925781 C 217.167969 235.367188 217.34375 234.808594 217.503906 234.253906 C 212.121094 233.703125 206.710938 233.460938 201.300781 233.535156 Z M 177.527344 200.53125 C 173.273438 198.785156 168.734375 197.777344 164.152344 197.164062 C 164.023438 197.707031 163.894531 198.265625 163.769531 198.839844 C 168.449219 199.449219 173.09375 200.480469 177.402344 202.335938 C 177.4375 201.710938 177.480469 201.109375 177.527344 200.53125 Z M 177.277344 212.664062 C 177.257812 212.054688 177.246094 211.457031 177.234375 210.871094 C 172.351562 209.539062 167.308594 208.703125 162.257812 208.277344 C 162.199219 208.835938 162.148438 209.402344 162.105469 209.972656 C 165.855469 210.296875 169.585938 210.871094 173.246094 211.667969 C 174.597656 211.960938 175.945312 212.292969 177.277344 212.664062 Z M 178.242188 223.84375 C 178.152344 223.285156 178.070312 222.710938 177.992188 222.121094 C 172.710938 222.0625 167.429688 222.160156 162.152344 222.417969 C 162.207031 222.984375 162.269531 223.558594 162.335938 224.132812 C 167.632812 223.878906 172.9375 223.78125 178.242188 223.84375 Z M 180.128906 235.335938 C 180.515625 235.351562 180.902344 235.375 181.292969 235.394531 C 181.074219 234.839844 180.855469 234.257812 180.640625 233.640625 C 175.195312 233.417969 169.734375 233.511719 164.300781 233.921875 C 164.460938 234.480469 164.632812 235.042969 164.8125 235.605469 C 169.910156 235.242188 175.023438 235.144531 180.128906 235.335938 Z M 193.957031 172.46875 C 192.167969 173.011719 190.335938 172.96875 188.558594 172.351562 C 188.117188 172.199219 187.613281 172.535156 187.5 172.960938 C 187.371094 173.4375 187.667969 173.863281 188.113281 174.015625 C 190.136719 174.71875 192.378906 174.75 194.429688 174.125 C 194.875 173.992188 195.152344 173.515625 195.023438 173.0625 C 194.898438 172.621094 194.402344 172.332031 193.957031 172.46875 Z M 193.957031 172.46875 " fill-opacity="1" fill-rule="nonzero"/></g></svg>